<svg xmlns="http://www.w3.org/2000/svg" xmlns:xlink="http://www.w3.org/1999/xlink" width="100%" height="100%" version="1.1" viewBox="0 0 637 650" xml:space="preserve" style="fill-rule:evenodd;clip-rule:evenodd;stroke-linecap:round;stroke-linejoin:round;stroke-miterlimit:1.5"><g transform="matrix(1,0,0,1,-651.5,-915)"><g id="Artboard-OCR-demo---web" transform="matrix(0.286421,0,0,0.389688,651.5,915)"><rect width="2224" height="1668" x="0" y="0" style="fill:none"/><g transform="matrix(0.877089,0,0,0.823341,33.8988,30.9539)"><rect width="2397" height="1932" x="26" y="0" style="fill:none;stroke:#5f9ea7;stroke-width:13.88px"/></g><g id="web"><g transform="matrix(0.176249,0,0,0.129543,1024.96,278.404) matrix(1,0,0,1,59.6437,-1030.43)"><rect width="750" height="500" x="54.29" y="370.711" style="fill:#f9a777;fill-rule:nonzero"/></g><g><path d="M204.29,270.711L54.29,270.711L54.29,350.711L284.29,350.711L204.29,270.711Z" transform="matrix(0.176249,0,0,0.129543,1024.96,278.404) matrix(1,0,0,1,59.6437,-1030.43)" style="fill:#f9a777;fill-rule:nonzero"/></g><g><path d="M945.71,229.288L945.71,729.288L814.29,729.288L814.29,360.708L308.43,360.708L208.43,260.708L195.71,260.708L195.71,229.288L945.71,229.288Z" transform="matrix(0.176249,0,0,0.129543,1024.96,278.404) matrix(1,0,0,1,59.6437,-1030.43)" style="fill:#f9a777;fill-rule:nonzero"/></g><g><path d="M345.711,129.289L195.711,129.289L195.711,209.289L425.711,209.289L345.711,129.289Z" transform="matrix(0.176249,0,0,0.129543,1024.96,278.404) matrix(1,0,0,1,59.6437,-1030.43)" style="fill:#f9a777;fill-rule:nonzero"/></g></g><g><text x="988.18" y="305.775" transform="matrix(1.32298,0,0,0.972387,-1228.88,461.784)" style="font-family:'OpenSans-SemiBold','Open Sans',sans-serif;font-weight:600;font-size:30.085px;fill:#d87843">index.html</text></g><g><text x="1036.09" y="305.775" transform="matrix(1.32298,0,0,0.972387,-286.423,-0.848504)" style="font-family:'OpenSans-SemiBold','Open Sans',sans-serif;font-weight:600;font-size:30.085px;fill:#d87843">web</text></g><g transform="matrix(0.176896,0,0,0.130018,249.511,427.022)"><rect width="750" height="500" x="125" y="300" style="fill:#f9a777;fill-rule:nonzero"/></g><g transform="matrix(0.176896,0,0,0.130018,1716.77,427.022)"><rect width="750" height="500" x="125" y="300" style="fill:#f9a777;fill-rule:nonzero"/></g><g><path d="M275,200L125,200L125,280L355,280L275,200Z" transform="matrix(0.176896,0,0,0.130018,249.511,427.022)" style="fill:#f9a777;fill-rule:nonzero"/></g><g><path d="M275,200L125,200L125,280L355,280L275,200Z" transform="matrix(0.176896,0,0,0.130018,1716.77,427.022)" style="fill:#f9a777;fill-rule:nonzero"/></g><g><text x="1022.29" y="305.775" transform="matrix(1.32298,0,0,0.972387,-1073.52,268.146)" style="font-family:'OpenSans-SemiBold','Open Sans',sans-serif;font-weight:600;font-size:30.085px;fill:#d87843">public</text></g><g><text x="1045.16" y="305.775" transform="matrix(1.32298,0,0,0.972387,393.738,268.146)" style="font-family:'OpenSans-SemiBold','Open Sans',sans-serif;font-weight:600;font-size:30.085px;fill:#d87843">src</text></g><g><text x="331.878" y="300.824" transform="matrix(3.00612,0,0,2.2095,-300.669,-565.676)" style="font-family:'OpenSans-SemiBold','Open Sans',sans-serif;font-weight:600;font-size:19.976px;fill:#333">OCR project – web directory</text></g><g><path d="M647.266,1134.49L-211.191,1595.89" transform="matrix(0.885528,0,0,0.277432,542.562,10.2734)" style="fill:none;stroke:#f9a777;stroke-width:10.26px"/></g><g><path d="M647.266,1134.49L749.251,1633.38" transform="matrix(0.885528,0,0,0.277432,542.562,10.2734)" style="fill:none;stroke:#f9a777;stroke-width:10.26px"/></g><g><path d="M647.266,1134.49L439.572,1642.76" transform="matrix(0.885528,0,0,0.277432,542.562,10.2734)" style="fill:none;stroke:#f9a777;stroke-width:10.26px"/></g><g><path d="M647.266,1134.49L1064.51,1633.38" transform="matrix(0.885528,0,0,0.277432,542.562,10.2734)" style="fill:none;stroke:#f9a777;stroke-width:10.26px"/></g><g><path d="M647.266,1134.49L85.516,1633.38" transform="matrix(0.885528,0,0,0.277432,542.562,10.2734)" style="fill:none;stroke:#f9a777;stroke-width:10.26px"/></g><g><path d="M647.266,1134.49L-126.408,1529.82" transform="matrix(-0.885528,0,0,0.277432,1693.28,10.247)" style="fill:none;stroke:#f9a777;stroke-width:10.26px"/></g><g><path d="M191,1237L4.35,1407.77" transform="matrix(0.803381,0,0,0.322241,182.114,183.413)" style="fill:none;stroke:#f9a777;stroke-width:10.79px"/></g><g><path d="M191,1237L-84.703,1500.72" transform="matrix(-0.0404445,-0.0020925,-0.0307908,0.321506,385.228,184.354)" style="fill:none;stroke:#f9a777;stroke-width:22.42px"/></g><g><path d="M293.706,1220.58L20.932,1703.14" transform="matrix(-0.673288,0,0,0.300574,538.577,215.58)" style="fill:none;stroke:#f9a777;stroke-width:12.54px"/></g><g><text x="985.695" y="305.775" transform="matrix(1.32298,0,0,0.972387,-886.746,461.784)" style="font-family:'OpenSans-SemiBold','Open Sans',sans-serif;font-weight:600;font-size:24.631px;fill:#d87843">manifest.json</text></g><g><text x="1015.37" y="305.775" transform="matrix(1.32298,0,0,0.972387,-1056.34,397.11)" style="font-family:'OpenSans-SemiBold','Open Sans',sans-serif;font-weight:600;font-size:24.631px;fill:#d87843">logo.png</text></g><g><path d="M59.831,58.995C59.831,59.678 59.266,60.253 58.562,60.253L41.57,60.253C40.834,60.253 40.269,59.678 40.269,58.995L40.269,33.77C40.269,33.066 40.877,32.511 41.57,32.511L50.764,32.511L50.764,37.728C50.764,39.818 52.472,41.524 54.55,41.524L59.831,41.524L59.831,58.995ZM53.25,33.588L58.69,39.039L54.55,39.039C53.857,39.039 53.25,38.43 53.25,37.728L53.25,33.588ZM56.472,53.332L43.661,53.332C42.968,53.332 42.402,53.887 42.402,54.548C42.402,55.252 42.968,55.817 43.661,55.817L56.472,55.817C57.174,55.817 57.73,55.252 57.73,54.548C57.73,53.887 57.174,53.332 56.472,53.332ZM56.472,48.331L43.661,48.331C42.968,48.331 42.402,48.884 42.402,49.589C42.402,50.239 42.968,50.794 43.661,50.794L56.472,50.794C57.174,50.794 57.73,50.239 57.73,49.589C57.73,48.884 57.174,48.331 56.472,48.331ZM62.304,40.031C62.178,39.349 61.826,38.644 61.26,38.089L54.253,31.114C53.687,30.549 52.942,30.154 52.205,30.069L52.119,30.026L41.57,30.026C39.48,30.026 37.784,31.723 37.784,33.77L37.784,59.177C37.912,61.119 39.564,62.739 41.57,62.739L58.562,62.739C60.652,62.739 62.359,61.085 62.359,58.995L62.359,40.127L62.304,40.031Z" transform="matrix(2.66818,0,0,1.96111,52.2002,600.179)" style="fill:#f9a777"/></g><g><path d="M191,1237L190.022,1362.48" transform="matrix(1.32298,0,0,0.32157,559.876,660.398)" style="fill:none;stroke:#f9a777;stroke-width:7.09px"/></g><g><path d="M191,1237L190.022,1362.48" transform="matrix(1.32298,0,0,0.32157,1631.85,647.123)" style="fill:none;stroke:#f9a777;stroke-width:7.09px"/></g><g><path d="M191,1237L190.022,1362.48" transform="matrix(1.32298,0,0,0.32157,1379.07,647.123)" style="fill:none;stroke:#f9a777;stroke-width:7.09px"/></g><g transform="matrix(0.176896,0,0,0.130018,730.061,910.184)"><rect width="750" height="500" x="125" y="300" style="fill:#f9a777;fill-rule:nonzero"/></g><g><path d="M275,200L125,200L125,280L355,280L275,200Z" transform="matrix(0.176896,0,0,0.130018,730.061,910.184)" style="fill:#f9a777;fill-rule:nonzero"/></g><g><text x="1014.08" y="305.775" transform="matrix(1.32298,0,0,0.972387,-592.969,751.308)" style="font-family:'OpenSans-SemiBold','Open Sans',sans-serif;font-weight:600;font-size:30.085px;fill:#d87843">actions</text></g><g transform="matrix(0.176896,0,0,0.130018,1279.23,898.378)"><rect width="750" height="500" x="125" y="300" style="fill:#f9a777;fill-rule:nonzero"/></g><g transform="matrix(0.176896,0,0,0.130018,1556.11,893.177)"><rect width="750" height="500" x="125" y="300" style="fill:#f9a777;fill-rule:nonzero"/></g><g transform="matrix(0.176896,0,0,0.130018,1796.6,893.177)"><rect width="750" height="500" x="125" y="300" style="fill:#f9a777;fill-rule:nonzero"/></g><g><path d="M275,200L125,200L125,280L355,280L275,200Z" transform="matrix(0.176896,0,0,0.130018,1279.23,898.378)" style="fill:#f9a777;fill-rule:nonzero"/></g><g><path d="M275,200L125,200L125,280L355,280L275,200Z" transform="matrix(0.176896,0,0,0.130018,1556.11,893.177)" style="fill:#f9a777;fill-rule:nonzero"/></g><g><path d="M275,200L125,200L125,280L355,280L275,200Z" transform="matrix(0.176896,0,0,0.130018,1796.6,893.177)" style="fill:#f9a777;fill-rule:nonzero"/></g><g><text x="975.841" y="305.775" transform="matrix(1.32298,0,0,0.972387,-43.7955,739.502)" style="font-family:'OpenSans-SemiBold','Open Sans',sans-serif;font-weight:600;font-size:30.085px;fill:#d87843">components</text></g><g><text x="1014.76" y="305.775" transform="matrix(1.32298,0,0,0.972387,233.081,734.301)" style="font-family:'OpenSans-SemiBold','Open Sans',sans-serif;font-weight:600;font-size:30.085px;fill:#d87843">images</text></g><g><text x="984.816" y="305.775" transform="matrix(1.32298,0,0,0.972387,473.574,734.301)" style="font-family:'OpenSans-SemiBold','Open Sans',sans-serif;font-weight:600;font-size:30.085px;fill:#d87843">stylesheets</text></g><g><text x="1010.7" y="305.775" transform="matrix(1.32298,0,0,0.972387,-1190.05,740.545)" style="font-family:'OpenSans-SemiBold','Open Sans',sans-serif;font-weight:600;font-size:30.085px;fill:#d87843">index.js</text></g><g><text x="1010.7" y="305.775" transform="matrix(1.32298,0,0,0.972387,-598.437,921.866)" style="font-family:'OpenSans-SemiBold','Open Sans',sans-serif;font-weight:600;font-size:30.085px;fill:#d87843">index.js</text></g><g><text x="1022.08" y="305.775" transform="matrix(1.32298,0,0,0.972387,-510.481,1077.62)" style="font-family:'OpenSans-SemiBold','Open Sans',sans-serif;font-weight:600;font-size:30.085px;fill:#d87843">App.js</text></g><g><text x="997.552" y="305.775" transform="matrix(1.32298,0,0,0.972387,-402.368,1196.53)" style="font-family:'OpenSans-SemiBold','Open Sans',sans-serif;font-weight:600;font-size:30.085px;fill:#d87843">Header.js</text></g><g><text x="973.689" y="305.775" transform="matrix(1.32298,0,0,0.972387,-185.532,1107.64)" style="font-family:'OpenSans-SemiBold','Open Sans',sans-serif;font-weight:600;font-size:30.085px;fill:#d87843">FileUpload.js</text></g><g><text x="953.123" y="305.775" transform="matrix(1.32298,0,0,0.972387,259.654,1077.62)" style="font-family:'OpenSans-SemiBold','Open Sans',sans-serif;font-weight:600;font-size:30.085px;fill:#d87843">ImageDisplay.js</text></g><g><text x="966.476" y="305.775" transform="matrix(1.32298,0,0,0.972387,527.623,1135.88)" style="font-family:'OpenSans-SemiBold','Open Sans',sans-serif;font-weight:600;font-size:30.085px;fill:#d87843">TextDisplay.js</text></g><g><text x="1005.51" y="305.775" transform="matrix(1.32298,0,0,0.972387,64.4397,1213.45)" style="font-family:'OpenSans-SemiBold','Open Sans',sans-serif;font-weight:600;font-size:30.085px;fill:#d87843">Result.js</text></g><g><text x="946.277" y="305.775" transform="matrix(1.32298,0,0,0.972387,-885.21,740.545)" style="font-family:'OpenSans-SemiBold','Open Sans',sans-serif;font-weight:600;font-size:30.085px;fill:#d87843">serviceWorker.js</text></g><g><path d="M59.831,58.995C59.831,59.678 59.266,60.253 58.562,60.253L41.57,60.253C40.834,60.253 40.269,59.678 40.269,58.995L40.269,33.77C40.269,33.066 40.877,32.511 41.57,32.511L50.764,32.511L50.764,37.728C50.764,39.818 52.472,41.524 54.55,41.524L59.831,41.524L59.831,58.995ZM53.25,33.588L58.69,39.039L54.55,39.039C53.857,39.039 53.25,38.43 53.25,37.728L53.25,33.588ZM56.472,53.332L43.661,53.332C42.968,53.332 42.402,53.887 42.402,54.548C42.402,55.252 42.968,55.817 43.661,55.817L56.472,55.817C57.174,55.817 57.73,55.252 57.73,54.548C57.73,53.887 57.174,53.332 56.472,53.332ZM56.472,48.331L43.661,48.331C42.968,48.331 42.402,48.884 42.402,49.589C42.402,50.239 42.968,50.794 43.661,50.794L56.472,50.794C57.174,50.794 57.73,50.239 57.73,49.589C57.73,48.884 57.174,48.331 56.472,48.331ZM62.304,40.031C62.178,39.349 61.826,38.644 61.26,38.089L54.253,31.114C53.687,30.549 52.942,30.154 52.205,30.069L52.119,30.026L41.57,30.026C39.48,30.026 37.784,31.723 37.784,33.77L37.784,59.177C37.912,61.119 39.564,62.739 41.57,62.739L58.562,62.739C60.652,62.739 62.359,61.085 62.359,58.995L62.359,40.127L62.304,40.031Z" transform="matrix(2.66818,0,0,1.96111,87.5385,878.23)" style="fill:#f9a777"/></g><g><path d="M59.831,58.995C59.831,59.678 59.266,60.253 58.562,60.253L41.57,60.253C40.834,60.253 40.269,59.678 40.269,58.995L40.269,33.77C40.269,33.066 40.877,32.511 41.57,32.511L50.764,32.511L50.764,37.728C50.764,39.818 52.472,41.524 54.55,41.524L59.831,41.524L59.831,58.995ZM53.25,33.588L58.69,39.039L54.55,39.039C53.857,39.039 53.25,38.43 53.25,37.728L53.25,33.588ZM56.472,53.332L43.661,53.332C42.968,53.332 42.402,53.887 42.402,54.548C42.402,55.252 42.968,55.817 43.661,55.817L56.472,55.817C57.174,55.817 57.73,55.252 57.73,54.548C57.73,53.887 57.174,53.332 56.472,53.332ZM56.472,48.331L43.661,48.331C42.968,48.331 42.402,48.884 42.402,49.589C42.402,50.239 42.968,50.794 43.661,50.794L56.472,50.794C57.174,50.794 57.73,50.239 57.73,49.589C57.73,48.884 57.174,48.331 56.472,48.331ZM62.304,40.031C62.178,39.349 61.826,38.644 61.26,38.089L54.253,31.114C53.687,30.549 52.942,30.154 52.205,30.069L52.119,30.026L41.57,30.026C39.48,30.026 37.784,31.723 37.784,33.77L37.784,59.177C37.912,61.119 39.564,62.739 41.57,62.739L58.562,62.739C60.652,62.739 62.359,61.085 62.359,58.995L62.359,40.127L62.304,40.031Z" transform="matrix(2.66818,0,0,1.96111,679.155,1059.55)" style="fill:#f9a777"/></g><g><path d="M59.831,58.995C59.831,59.678 59.266,60.253 58.562,60.253L41.57,60.253C40.834,60.253 40.269,59.678 40.269,58.995L40.269,33.77C40.269,33.066 40.877,32.511 41.57,32.511L50.764,32.511L50.764,37.728C50.764,39.818 52.472,41.524 54.55,41.524L59.831,41.524L59.831,58.995ZM53.25,33.588L58.69,39.039L54.55,39.039C53.857,39.039 53.25,38.43 53.25,37.728L53.25,33.588ZM56.472,53.332L43.661,53.332C42.968,53.332 42.402,53.887 42.402,54.548C42.402,55.252 42.968,55.817 43.661,55.817L56.472,55.817C57.174,55.817 57.73,55.252 57.73,54.548C57.73,53.887 57.174,53.332 56.472,53.332ZM56.472,48.331L43.661,48.331C42.968,48.331 42.402,48.884 42.402,49.589C42.402,50.239 42.968,50.794 43.661,50.794L56.472,50.794C57.174,50.794 57.73,50.239 57.73,49.589C57.73,48.884 57.174,48.331 56.472,48.331ZM62.304,40.031C62.178,39.349 61.826,38.644 61.26,38.089L54.253,31.114C53.687,30.549 52.942,30.154 52.205,30.069L52.119,30.026L41.57,30.026C39.48,30.026 37.784,31.723 37.784,33.77L37.784,59.177C37.912,61.119 39.564,62.739 41.57,62.739L58.562,62.739C60.652,62.739 62.359,61.085 62.359,58.995L62.359,40.127L62.304,40.031Z" transform="matrix(2.66818,0,0,1.96111,767.112,1215.3)" style="fill:#f9a777"/></g><g><path d="M59.831,58.995C59.831,59.678 59.266,60.253 58.562,60.253L41.57,60.253C40.834,60.253 40.269,59.678 40.269,58.995L40.269,33.77C40.269,33.066 40.877,32.511 41.57,32.511L50.764,32.511L50.764,37.728C50.764,39.818 52.472,41.524 54.55,41.524L59.831,41.524L59.831,58.995ZM53.25,33.588L58.69,39.039L54.55,39.039C53.857,39.039 53.25,38.43 53.25,37.728L53.25,33.588ZM56.472,53.332L43.661,53.332C42.968,53.332 42.402,53.887 42.402,54.548C42.402,55.252 42.968,55.817 43.661,55.817L56.472,55.817C57.174,55.817 57.73,55.252 57.73,54.548C57.73,53.887 57.174,53.332 56.472,53.332ZM56.472,48.331L43.661,48.331C42.968,48.331 42.402,48.884 42.402,49.589C42.402,50.239 42.968,50.794 43.661,50.794L56.472,50.794C57.174,50.794 57.73,50.239 57.73,49.589C57.73,48.884 57.174,48.331 56.472,48.331ZM62.304,40.031C62.178,39.349 61.826,38.644 61.26,38.089L54.253,31.114C53.687,30.549 52.942,30.154 52.205,30.069L52.119,30.026L41.57,30.026C39.48,30.026 37.784,31.723 37.784,33.77L37.784,59.177C37.912,61.119 39.564,62.739 41.57,62.739L58.562,62.739C60.652,62.739 62.359,61.085 62.359,58.995L62.359,40.127L62.304,40.031Z" transform="matrix(2.66818,0,0,1.96111,875.224,1334.22)" style="fill:#f9a777"/></g><g><path d="M59.831,58.995C59.831,59.678 59.266,60.253 58.562,60.253L41.57,60.253C40.834,60.253 40.269,59.678 40.269,58.995L40.269,33.77C40.269,33.066 40.877,32.511 41.57,32.511L50.764,32.511L50.764,37.728C50.764,39.818 52.472,41.524 54.55,41.524L59.831,41.524L59.831,58.995ZM53.25,33.588L58.69,39.039L54.55,39.039C53.857,39.039 53.25,38.43 53.25,37.728L53.25,33.588ZM56.472,53.332L43.661,53.332C42.968,53.332 42.402,53.887 42.402,54.548C42.402,55.252 42.968,55.817 43.661,55.817L56.472,55.817C57.174,55.817 57.73,55.252 57.73,54.548C57.73,53.887 57.174,53.332 56.472,53.332ZM56.472,48.331L43.661,48.331C42.968,48.331 42.402,48.884 42.402,49.589C42.402,50.239 42.968,50.794 43.661,50.794L56.472,50.794C57.174,50.794 57.73,50.239 57.73,49.589C57.73,48.884 57.174,48.331 56.472,48.331ZM62.304,40.031C62.178,39.349 61.826,38.644 61.26,38.089L54.253,31.114C53.687,30.549 52.942,30.154 52.205,30.069L52.119,30.026L41.57,30.026C39.48,30.026 37.784,31.723 37.784,33.77L37.784,59.177C37.912,61.119 39.564,62.739 41.57,62.739L58.562,62.739C60.652,62.739 62.359,61.085 62.359,58.995L62.359,40.127L62.304,40.031Z" transform="matrix(2.66818,0,0,1.96111,1092.06,1245.32)" style="fill:#f9a777"/></g><g><path d="M59.831,58.995C59.831,59.678 59.266,60.253 58.562,60.253L41.57,60.253C40.834,60.253 40.269,59.678 40.269,58.995L40.269,33.77C40.269,33.066 40.877,32.511 41.57,32.511L50.764,32.511L50.764,37.728C50.764,39.818 52.472,41.524 54.55,41.524L59.831,41.524L59.831,58.995ZM53.25,33.588L58.69,39.039L54.55,39.039C53.857,39.039 53.25,38.43 53.25,37.728L53.25,33.588ZM56.472,53.332L43.661,53.332C42.968,53.332 42.402,53.887 42.402,54.548C42.402,55.252 42.968,55.817 43.661,55.817L56.472,55.817C57.174,55.817 57.73,55.252 57.73,54.548C57.73,53.887 57.174,53.332 56.472,53.332ZM56.472,48.331L43.661,48.331C42.968,48.331 42.402,48.884 42.402,49.589C42.402,50.239 42.968,50.794 43.661,50.794L56.472,50.794C57.174,50.794 57.73,50.239 57.73,49.589C57.73,48.884 57.174,48.331 56.472,48.331ZM62.304,40.031C62.178,39.349 61.826,38.644 61.26,38.089L54.253,31.114C53.687,30.549 52.942,30.154 52.205,30.069L52.119,30.026L41.57,30.026C39.48,30.026 37.784,31.723 37.784,33.77L37.784,59.177C37.912,61.119 39.564,62.739 41.57,62.739L58.562,62.739C60.652,62.739 62.359,61.085 62.359,58.995L62.359,40.127L62.304,40.031Z" transform="matrix(2.66818,0,0,1.96111,1537.25,1215.3)" style="fill:#f9a777"/></g><g><path d="M59.831,58.995C59.831,59.678 59.266,60.253 58.562,60.253L41.57,60.253C40.834,60.253 40.269,59.678 40.269,58.995L40.269,33.77C40.269,33.066 40.877,32.511 41.57,32.511L50.764,32.511L50.764,37.728C50.764,39.818 52.472,41.524 54.55,41.524L59.831,41.524L59.831,58.995ZM53.25,33.588L58.69,39.039L54.55,39.039C53.857,39.039 53.25,38.43 53.25,37.728L53.25,33.588ZM56.472,53.332L43.661,53.332C42.968,53.332 42.402,53.887 42.402,54.548C42.402,55.252 42.968,55.817 43.661,55.817L56.472,55.817C57.174,55.817 57.73,55.252 57.73,54.548C57.73,53.887 57.174,53.332 56.472,53.332ZM56.472,48.331L43.661,48.331C42.968,48.331 42.402,48.884 42.402,49.589C42.402,50.239 42.968,50.794 43.661,50.794L56.472,50.794C57.174,50.794 57.73,50.239 57.73,49.589C57.73,48.884 57.174,48.331 56.472,48.331ZM62.304,40.031C62.178,39.349 61.826,38.644 61.26,38.089L54.253,31.114C53.687,30.549 52.942,30.154 52.205,30.069L52.119,30.026L41.57,30.026C39.48,30.026 37.784,31.723 37.784,33.77L37.784,59.177C37.912,61.119 39.564,62.739 41.57,62.739L58.562,62.739C60.652,62.739 62.359,61.085 62.359,58.995L62.359,40.127L62.304,40.031Z" transform="matrix(2.66818,0,0,1.96111,1805.22,1273.57)" style="fill:#f9a777"/></g><g><path d="M59.831,58.995C59.831,59.678 59.266,60.253 58.562,60.253L41.57,60.253C40.834,60.253 40.269,59.678 40.269,58.995L40.269,33.77C40.269,33.066 40.877,32.511 41.57,32.511L50.764,32.511L50.764,37.728C50.764,39.818 52.472,41.524 54.55,41.524L59.831,41.524L59.831,58.995ZM53.25,33.588L58.69,39.039L54.55,39.039C53.857,39.039 53.25,38.43 53.25,37.728L53.25,33.588ZM56.472,53.332L43.661,53.332C42.968,53.332 42.402,53.887 42.402,54.548C42.402,55.252 42.968,55.817 43.661,55.817L56.472,55.817C57.174,55.817 57.73,55.252 57.73,54.548C57.73,53.887 57.174,53.332 56.472,53.332ZM56.472,48.331L43.661,48.331C42.968,48.331 42.402,48.884 42.402,49.589C42.402,50.239 42.968,50.794 43.661,50.794L56.472,50.794C57.174,50.794 57.73,50.239 57.73,49.589C57.73,48.884 57.174,48.331 56.472,48.331ZM62.304,40.031C62.178,39.349 61.826,38.644 61.26,38.089L54.253,31.114C53.687,30.549 52.942,30.154 52.205,30.069L52.119,30.026L41.57,30.026C39.48,30.026 37.784,31.723 37.784,33.77L37.784,59.177C37.912,61.119 39.564,62.739 41.57,62.739L58.562,62.739C60.652,62.739 62.359,61.085 62.359,58.995L62.359,40.127L62.304,40.031Z" transform="matrix(2.66818,0,0,1.96111,1342.03,1351.13)" style="fill:#f9a777"/></g><g><path d="M59.831,58.995C59.831,59.678 59.266,60.253 58.562,60.253L41.57,60.253C40.834,60.253 40.269,59.678 40.269,58.995L40.269,33.77C40.269,33.066 40.877,32.511 41.57,32.511L50.764,32.511L50.764,37.728C50.764,39.818 52.472,41.524 54.55,41.524L59.831,41.524L59.831,58.995ZM53.25,33.588L58.69,39.039L54.55,39.039C53.857,39.039 53.25,38.43 53.25,37.728L53.25,33.588ZM56.472,53.332L43.661,53.332C42.968,53.332 42.402,53.887 42.402,54.548C42.402,55.252 42.968,55.817 43.661,55.817L56.472,55.817C57.174,55.817 57.73,55.252 57.73,54.548C57.73,53.887 57.174,53.332 56.472,53.332ZM56.472,48.331L43.661,48.331C42.968,48.331 42.402,48.884 42.402,49.589C42.402,50.239 42.968,50.794 43.661,50.794L56.472,50.794C57.174,50.794 57.73,50.239 57.73,49.589C57.73,48.884 57.174,48.331 56.472,48.331ZM62.304,40.031C62.178,39.349 61.826,38.644 61.26,38.089L54.253,31.114C53.687,30.549 52.942,30.154 52.205,30.069L52.119,30.026L41.57,30.026C39.48,30.026 37.784,31.723 37.784,33.77L37.784,59.177C37.912,61.119 39.564,62.739 41.57,62.739L58.562,62.739C60.652,62.739 62.359,61.085 62.359,58.995L62.359,40.127L62.304,40.031Z" transform="matrix(2.66818,0,0,1.96111,392.344,878.23)" style="fill:#f9a777"/></g><g><path d="M362.971,741.851L-184.423,1368.31" transform="matrix(0.803381,0,0,0.322241,1050.43,813.355)" style="fill:none;stroke:#f9a777;stroke-width:10.79px"/></g><g><path d="M362.971,741.851L-1569.65,1771.81" transform="matrix(0.803381,0,0,0.322241,1482.48,348.23)" style="fill:none;stroke:#f9a777;stroke-width:10.79px"/></g><g><path d="M362.971,741.851L-1202.07,1751.56" transform="matrix(0.803381,0,0,0.322241,1482.48,348.23)" style="fill:none;stroke:#f9a777;stroke-width:10.79px"/></g><g><path d="M362.971,741.851L-827.206,1751.56" transform="matrix(0.803381,0,0,0.322241,1482.48,348.23)" style="fill:none;stroke:#f9a777;stroke-width:10.79px"/></g><g><path d="M362.971,741.851L-142.891,1725.21" transform="matrix(0.803381,0,0,0.322241,1482.48,348.23)" style="fill:none;stroke:#f9a777;stroke-width:10.79px"/></g><g><path d="M362.971,741.851L214.63,1725.21" transform="matrix(0.803381,0,0,0.322241,1482.48,348.23)" style="fill:none;stroke:#f9a777;stroke-width:10.79px"/></g><g><path d="M362.971,741.851L501.1,1771.81" transform="matrix(0.803381,0,0,0.322241,1482.48,348.23)" style="fill:none;stroke:#f9a777;stroke-width:10.79px"/></g><g><path d="M-2843.76,722.114L4845.11,1786.86" transform="matrix(-0.0404445,-0.0020925,-0.0307908,0.321506,1253.54,814.296)" style="fill:none;stroke:#f9a777;stroke-width:22.42px"/></g><g><path d="M-2857.35,739.973L-6497.52,1766.98" transform="matrix(-0.0404445,-0.0020925,-0.0307908,0.321506,1253.54,814.296)" style="fill:none;stroke:#f9a777;stroke-width:22.42px"/></g><g><path d="M-2840.48,717.814L-10937.2,1331.02" transform="matrix(-0.0404445,-0.0020925,-0.0307908,0.321506,1253.54,814.296)" style="fill:none;stroke:#f9a777;stroke-width:22.42px"/></g><g><path d="M-2840.48,717.814L-18029.1,1455.18" transform="matrix(-0.0404445,-0.0020925,-0.0307908,0.321506,1253.54,814.296)" style="fill:none;stroke:#f9a777;stroke-width:22.42px"/></g><g><path d="M-2843.76,722.114L-442.276,1492.66" transform="matrix(-0.0404445,-0.0020925,-0.0307908,0.321506,1253.54,814.296)" style="fill:none;stroke:#f9a777;stroke-width:22.42px"/></g><g><text x="994.685" y="305.775" transform="matrix(1.32298,0,0,0.972387,233.67,819.526)" style="font-family:'OpenSans-SemiBold','Open Sans',sans-serif;font-weight:600;font-size:24.631px;fill:#333">(image ﬁles)</text></g><g><text x="991.804" y="305.775" transform="matrix(1.32298,0,0,0.972387,486.263,818.465)" style="font-family:'OpenSans-SemiBold','Open Sans',sans-serif;font-weight:600;font-size:24.631px;fill:#333">(stylesheets)</text></g><g><text x="1019.19" y="305.775" transform="matrix(1.32298,0,0,0.972387,-792.628,209.941)" style="font-family:'OpenSans-SemiBold','Open Sans',sans-serif;font-weight:600;font-size:24.631px;fill:#d87843">build.sh</text></g><g><text x="989.218" y="305.775" transform="matrix(1.32298,0,0,0.972387,-479.102,207.421)" style="font-family:'OpenSans-SemiBold','Open Sans',sans-serif;font-weight:600;font-size:24.631px;fill:#d87843">package.json</text></g><g><text x="1009.88" y="305.775" transform="matrix(1.32298,0,0,0.972387,86.8128,204.526)" style="font-family:'OpenSans-SemiBold','Open Sans',sans-serif;font-weight:600;font-size:24.631px;fill:#d87843">.gitignore</text></g><g><text x="1019.66" y="305.775" transform="matrix(1.32298,0,0,0.972387,-205.072,207.421)" style="font-family:'OpenSans-SemiBold','Open Sans',sans-serif;font-weight:600;font-size:24.631px;fill:#d87843">.include</text></g></g></g></svg>